<svg width="204" height="42" viewBox="0 0 204 42" fill="none" xmlns="http://www.w3.org/2000/svg">
<!-- Inner fills (depth effect) -->
<rect x="36" y="12" width="12" height="6" fill="#4B4646"/>
<rect x="66" y="24" width="18" height="6" fill="#4B4646"/>
<rect x="96" y="18" width="12" height="12" fill="#4B4646"/>
<rect x="126" y="24" width="12" height="6" fill="#4B4646"/>
<!-- K (x=0) -->
<rect x="0" y="6" width="6" height="6" fill="#F1ECEC"/>
<rect x="18" y="6" width="6" height="6" fill="#F1ECEC"/>
<rect x="0" y="12" width="6" height="6" fill="#F1ECEC"/>
<rect x="12" y="12" width="6" height="6" fill="#F1ECEC"/>
<rect x="0" y="18" width="12" height="6" fill="#F1ECEC"/>
<rect x="0" y="24" width="6" height="6" fill="#F1ECEC"/>
<rect x="12" y="24" width="6" height="6" fill="#F1ECEC"/>
<rect x="0" y="30" width="6" height="6" fill="#F1ECEC"/>
<rect x="18" y="30" width="6" height="6" fill="#F1ECEC"/>
<!-- R (x=30) -->
<rect x="30" y="6" width="18" height="6" fill="#F1ECEC"/>
<rect x="30" y="12" width="6" height="6" fill="#F1ECEC"/>
<rect x="48" y="12" width="6" height="6" fill="#F1ECEC"/>
<rect x="30" y="18" width="18" height="6" fill="#F1ECEC"/>
<rect x="30" y="24" width="6" height="6" fill="#F1ECEC"/>
<rect x="42" y="24" width="6" height="6" fill="#F1ECEC"/>
<rect x="30" y="30" width="6" height="6" fill="#F1ECEC"/>
<rect x="48" y="30" width="6" height="6" fill="#F1ECEC"/>
<!-- E (x=60) -->
<rect x="60" y="6" width="24" height="6" fill="#F1ECEC"/>
<rect x="60" y="12" width="6" height="6" fill="#F1ECEC"/>
<rect x="60" y="18" width="18" height="6" fill="#F1ECEC"/>
<rect x="60" y="24" width="6" height="6" fill="#F1ECEC"/>
<rect x="60" y="30" width="24" height="6" fill="#F1ECEC"/>
<!-- O (x=90) -->
<rect x="90" y="6" width="24" height="6" fill="#F1ECEC"/>
<rect x="90" y="12" width="6" height="6" fill="#F1ECEC"/>
<rect x="108" y="12" width="6" height="6" fill="#F1ECEC"/>
<rect x="90" y="18" width="6" height="6" fill="#F1ECEC"/>
<rect x="108" y="18" width="6" height="6" fill="#F1ECEC"/>
<rect x="90" y="24" width="6" height="6" fill="#F1ECEC"/>
<rect x="108" y="24" width="6" height="6" fill="#F1ECEC"/>
<rect x="90" y="30" width="24" height="6" fill="#F1ECEC"/>
<!-- N (x=120) -->
<rect x="120" y="6" width="6" height="6" fill="#F1ECEC"/>
<rect x="138" y="6" width="6" height="6" fill="#F1ECEC"/>
<rect x="120" y="12" width="12" height="6" fill="#F1ECEC"/>
<rect x="138" y="12" width="6" height="6" fill="#F1ECEC"/>
<rect x="120" y="18" width="6" height="6" fill="#F1ECEC"/>
<rect x="132" y="18" width="12" height="6" fill="#F1ECEC"/>
<rect x="120" y="24" width="6" height="6" fill="#F1ECEC"/>
<rect x="138" y="24" width="6" height="6" fill="#F1ECEC"/>
<rect x="120" y="30" width="6" height="6" fill="#F1ECEC"/>
<rect x="138" y="30" width="6" height="6" fill="#F1ECEC"/>
<!-- Y (x=150) -->
<rect x="150" y="6" width="6" height="6" fill="#F1ECEC"/>
<rect x="168" y="6" width="6" height="6" fill="#F1ECEC"/>
<rect x="150" y="12" width="6" height="6" fill="#F1ECEC"/>
<rect x="168" y="12" width="6" height="6" fill="#F1ECEC"/>
<rect x="156" y="18" width="12" height="6" fill="#F1ECEC"/>
<rect x="156" y="24" width="12" height="6" fill="#F1ECEC"/>
<rect x="156" y="30" width="12" height="6" fill="#F1ECEC"/>
<!-- X (x=180) -->
<rect x="180" y="6" width="6" height="6" fill="#F1ECEC"/>
<rect x="198" y="6" width="6" height="6" fill="#F1ECEC"/>
<rect x="186" y="12" width="12" height="6" fill="#F1ECEC"/>
<rect x="186" y="18" width="12" height="6" fill="#F1ECEC"/>
<rect x="186" y="24" width="12" height="6" fill="#F1ECEC"/>
<rect x="180" y="30" width="6" height="6" fill="#F1ECEC"/>
<rect x="198" y="30" width="6" height="6" fill="#F1ECEC"/>
</svg>
